{"title":"Cannibal Holocaust 1980 Uncut Uncensored DVDRip Xvid AC3 LKRG","uid":10698687,"size":797505356,"categoryP":"video","categoryS":"movies","magnet":"?xt=urn:btih:d25f72853a86517aeae84353143aedd77523ca55&amp;dn=Cannibal+Holocaust+1980+Uncut+Uncensored+DVDRip+Xvid+AC3+LKRG&amp;tr=udp%3A%2F%2Ftracker.openbittorrent.com%3A80&amp;tr=udp%3A%2F%2Fopen.demonii.com%3A1337&amp;tr=udp%3A%2F%2Ftracker.coppersurfer.tk%3A6969&amp;tr=udp%3A%2F%2Fexodus.desync.com%3A6969","seeders":12,"leechers":1,"uploader":".BONE.","files":2,"time":1407203312,"description":"PLOT\n\nA New York University professor returns from a rescue mission to the Amazon\nrainforest with the footage shot by a lost team of documentarians who were making a film about the area's\nlocal cannibal tribes.\n\nRuntime ..........: 1h 36mn\nFile Size ........: 761 MB\nResolution .......: 720 x 464 &lt;a href=&quot;\nhttp://www.imdb.com/title/tt0078935/&quot; rel=&quot;nofollow&quot; target=&quot;_NEW&quot;&gt;\nhttp://www.imdb.com/title/tt0078935/&lt;/a&gt;\nGenre ............: Adventure,Horror,Cannibalism\nLanguage .........: English\nSubtitles ........: None\nComplete name : Cannibal Holocaust 1980 Uncut Uncensored DVDRip Xvid AC3 LKRGCHolocaust_LKRG.avi\nFormat : AVI\nFormat/Info : Audio Video Interleave\nFile size : 761 MiB\nDuration : 1h 36mn\nOverall bit rate : 1 097 Kbps\nWriting application : VirtualDubMod 1.5.10.2 (build 2540/release)\nWriting library : VirtualDubMod build 2540/release\nVideo\nID : 0\nFormat : MPEG-4 Visual\nFormat profile : Advanced Simple@L5\nFormat settings, BVOP : 2\nFormat settings, QPel : No\nFormat settings, GMC : No warppoints\nFormat settings, Matrix : Default (H.263)\nMuxing mode : Packed bitstream\nCodec ID : XVID\nCodec ID/Hint : XviD\nDuration : 1h 36mn\nBit rate : 861 Kbps\nWidth : 720 pixels\nHeight : 464 pixels\nDisplay aspect ratio : 1.881\nFrame rate : 29.970 fps\nColor space : YUV\nChroma subsampling : 4:2:0\nBit depth : 8 bits\nScan type : Progressive\nCompression mode : Lossy\nBits/(Pixel*Frame) : 0.086\nStream size : 597 MiB (79%)\nWriting library : XviD 1.2.1 (UTC 2008-12-04)\nAudio\nID : 1\nFormat : AC-3\nFormat/Info : Audio Coding 3\nMode extension : CM (complete main)\nFormat settings, Endianness : Big\nCodec ID : 2000\nDuration : 1h 36mn\nBit rate mode : Constant\nBit rate : 224 Kbps\nChannel(s) : 2 channels\nChannel positions : Front: L R\nSampling rate : 48.0 KHz\nBit depth : 16 bits\nCompression mode : Lossy\nStream size : 155 MiB (20%)\nAlignment : Split accross interleaves\nInterleave, duration : 33 ms (1.00 video frame)\nInterleave, preload duration : 500 ms","torrent":{"xt":"urn:btih:d25f72853a86517aeae84353143aedd77523ca55","amp;dn":"Cannibal+Holocaust+1980+Uncut+Uncensored+DVDRip+Xvid+AC3+LKRG","amp;tr":["udp%3A%2F%2Ftracker.openbittorrent.com%3A80","udp%3A%2F%2Fopen.demonii.com%3A1337","udp%3A%2F%2Ftracker.coppersurfer.tk%3A6969","udp%3A%2F%2Fexodus.desync.com%3A6969"],"infoHash":"d25f72853a86517aeae84353143aedd77523ca55","infoHashBuffer":{"type":"Buffer","data":[210,95,114,133,58,134,81,122,234,232,67,83,20,58,237,215,117,35,202,85]},"announce":[],"urlList":[]}}